<svg width="106" height="106" viewBox="0 0 106 106" fill="none" xmlns="http://www.w3.org/2000/svg">
<path d="M67.549 2.14048L67.7346 2.60475L67.549 2.14048ZM84.5487 53.6406L84.9768 53.8989L84.5487 53.6406ZM1.049 48.6406L1.53263 48.7675V48.7675L1.049 48.6406ZM31.049 90.6405L30.5504 90.6784L31.049 90.6405ZM20.0566 104.054C20.0086 104.325 20.1901 104.585 20.4621 104.633L24.8935 105.415C25.1654 105.463 25.4248 105.282 25.4728 105.01C25.5209 104.738 25.3393 104.479 25.0674 104.431L21.1283 103.735L21.8239 99.796C21.872 99.5241 21.6904 99.2647 21.4185 99.2167C21.1466 99.1687 20.8872 99.3502 20.8392 99.6221L20.0566 104.054ZM20.549 104.141C20.8357 104.55 20.8357 104.55 20.8358 104.55C20.8358 104.55 20.8358 104.55 20.8359 104.55C20.836 104.55 20.8361 104.55 20.8362 104.55C20.8365 104.55 20.8368 104.549 20.8373 104.549C20.8382 104.548 20.8395 104.548 20.8411 104.546C20.8444 104.544 20.8492 104.541 20.8554 104.536C20.8678 104.528 20.886 104.515 20.9097 104.498C20.957 104.464 21.0263 104.414 21.1151 104.349C21.2928 104.22 21.5489 104.03 21.8648 103.789C22.4964 103.305 23.3685 102.612 24.3317 101.773L24.0033 101.396L23.6748 101.019C22.7309 101.842 21.8758 102.521 21.2571 102.994C20.9479 103.231 20.698 103.416 20.526 103.541C20.44 103.604 20.3735 103.652 20.3287 103.684C20.3064 103.7 20.2895 103.712 20.2783 103.72C20.2727 103.724 20.2686 103.726 20.2659 103.728C20.2646 103.729 20.2636 103.73 20.263 103.73C20.2627 103.731 20.2625 103.731 20.2624 103.731C20.2623 103.731 20.2623 103.731 20.2623 103.731C20.2623 103.731 20.2623 103.731 20.2623 103.731C20.2623 103.731 20.2623 103.731 20.549 104.141ZM29.8363 94.8158L30.2685 95.0673C31.1133 93.6153 31.66 92.0812 31.5476 90.6026L31.049 90.6405L30.5504 90.6784C30.641 91.8689 30.2016 93.1937 29.4041 94.5644L29.8363 94.8158ZM31.049 90.6405L31.5476 90.6026C31.4546 89.3803 31.2548 88.2234 30.961 87.1249L30.478 87.2541L29.995 87.3832C30.2726 88.4213 30.4622 89.5171 30.5504 90.6784L31.049 90.6405ZM27.5119 81.1072L27.9173 80.8145C26.5659 78.9428 24.9244 77.2787 23.133 75.7485L22.8082 76.1287L22.4835 76.5088C24.2337 78.0039 25.8146 79.6105 27.1066 81.3999L27.5119 81.1072ZM17.3198 72.0048L17.6025 71.5924C16.6463 70.9368 15.6825 70.2939 14.729 69.6572C13.7745 69.0198 12.8303 68.3887 11.9085 67.7537L11.6248 68.1654L11.3412 68.5771C12.2698 69.2169 13.2199 69.8519 14.1737 70.4888C15.1284 71.1264 16.0869 71.7657 17.037 72.4172L17.3198 72.0048ZM6.18622 63.9796L6.52193 63.6091C4.76527 62.0175 3.31812 60.3276 2.34374 58.4364L1.89927 58.6654L1.45479 58.8944C2.50193 60.9268 4.03925 62.7091 5.8505 64.3501L6.18622 63.9796ZM0.499303 52.0313L0.998576 52.0582C1.05425 51.0271 1.22678 49.933 1.53263 48.7675L1.049 48.6406L0.565376 48.5137C0.243928 49.7387 0.0596648 50.8997 2.98619e-05 52.0043L0.499303 52.0313ZM1.049 48.6406L1.53263 48.7675C1.84747 47.5676 2.21402 46.4982 2.6277 45.549L2.16935 45.3493L1.711 45.1495C1.27399 46.1521 0.891422 47.2711 0.565376 48.5137L1.049 48.6406ZM6.41129 40.0177L6.67951 40.4397C8.46361 39.3057 10.5904 38.8942 13.0216 39.0527L13.0541 38.5537L13.0866 38.0548C10.5053 37.8865 8.15211 38.3188 6.14307 39.5958L6.41129 40.0177ZM19.7747 40.0473L19.612 40.5201C21.6294 41.214 23.7525 42.1171 25.9565 43.163L26.1709 42.7113L26.3852 42.2595C24.1599 41.2036 22.0008 40.2843 19.9373 39.5745L19.7747 40.0473ZM32.3375 45.8525L32.1013 46.2932C34.0895 47.359 36.1144 48.4814 38.1616 49.6183L38.4044 49.1812L38.6471 48.744C36.6004 47.6074 34.5694 46.4816 32.5738 45.4118L32.3375 45.8525ZM44.4689 52.5225L44.2309 52.9623C46.2847 54.074 48.3435 55.1575 50.3897 56.169L50.6113 55.7208L50.8329 55.2726C48.8016 54.2684 46.7544 53.1912 44.7069 52.0828L44.4689 52.5225ZM56.9138 58.5853L56.7252 59.0484C58.9705 59.9629 61.1828 60.7327 63.3372 61.295L63.4635 60.8112L63.5898 60.3274C61.4879 59.7788 59.3181 59.0247 57.1024 58.1222L56.9138 58.5853ZM70.2818 61.8156L70.2758 62.3156C72.7291 62.3451 75.0642 61.9571 77.228 61.0282L77.0308 60.5688L76.8336 60.1093C74.82 60.9737 72.6274 61.3438 70.2879 61.3156L70.2818 61.8156ZM82.5262 56.4568L82.9053 56.7829C83.6375 55.9317 84.3288 54.9726 84.9768 53.8989L84.5487 53.6406L84.1206 53.3822C83.4991 54.412 82.8401 55.3252 82.1472 56.1308L82.5262 56.4568ZM84.5487 53.6406L84.9768 53.8989C85.5942 52.8759 86.0917 51.8647 86.4785 50.8653L86.0122 50.6849L85.5459 50.5044C85.1814 51.4462 84.7102 52.4053 84.1206 53.3822L84.5487 53.6406ZM87.0063 44.2644L87.5049 44.2274C87.3385 41.9847 86.6677 39.8354 85.6501 37.7788L85.2019 38.0006L84.7538 38.2223C85.7262 40.1876 86.3526 42.2116 86.5077 44.3014L87.0063 44.2644ZM81.5959 32.5291L81.9839 32.2137C80.6179 30.5332 79.085 28.9145 77.4879 27.3558L77.1386 27.7137L76.7894 28.0715C78.369 29.613 79.8735 31.2028 81.2079 32.8445L81.5959 32.5291ZM72.3083 23.2634L72.64 22.8894C70.9307 21.3734 69.2646 19.9249 67.7385 18.5268L67.4007 18.8955L67.063 19.2641C68.5969 20.6694 70.2776 22.1308 71.9765 23.6375L72.3083 23.2634ZM62.8137 14.2066L63.2016 13.8911C61.5141 11.8165 60.666 9.99963 60.8929 8.37665L60.3977 8.30741L59.9026 8.23816C59.6143 10.2998 60.7053 12.4069 62.4259 14.5221L62.8137 14.2066ZM64.5398 3.55452L64.785 3.99029C65.6161 3.52267 66.5945 3.06062 67.7346 2.60475L67.549 2.14048L67.3634 1.67622C66.1911 2.14492 65.1717 2.62533 64.2946 3.11875L64.5398 3.55452ZM67.549 2.14048L67.7346 2.60475C68.8022 2.17791 69.8779 1.84315 70.957 1.59081L70.8432 1.10394L70.7293 0.617078C69.6026 0.880553 68.4788 1.23024 67.3634 1.67622L67.549 2.14048ZM77.7058 0.499513L77.6832 0.999C79.9623 1.10225 82.2139 1.48768 84.3908 2.06505L84.519 1.58176L84.6472 1.09847C82.4124 0.505775 80.0896 0.106997 77.7284 2.50041e-05L77.7058 0.499513ZM91.0242 3.90108L90.8213 4.35803C93.0265 5.33765 95.0706 6.43762 96.886 7.52719L97.1433 7.09848L97.4006 6.66977C95.5565 5.56298 93.476 4.4431 91.2272 3.44414L91.0242 3.90108ZM102.866 10.9671L102.564 11.3656C103.412 12.0077 104.076 12.5461 104.528 12.9231C104.754 13.1116 104.926 13.2598 105.042 13.3603C105.1 13.4105 105.143 13.4489 105.172 13.4744C105.186 13.4872 105.197 13.4967 105.204 13.503C105.207 13.5061 105.21 13.5084 105.212 13.5099C105.212 13.5106 105.213 13.5111 105.213 13.5114C105.214 13.5116 105.214 13.5117 105.214 13.5117C105.214 13.5117 105.214 13.5118 105.214 13.5117C105.214 13.5117 105.214 13.5117 105.214 13.5117C105.214 13.5117 105.214 13.5117 105.549 13.1406C105.884 12.7694 105.884 12.7694 105.884 12.7694C105.884 12.7694 105.884 12.7693 105.884 12.7693C105.884 12.7692 105.883 12.7692 105.883 12.7691C105.883 12.7689 105.883 12.7687 105.883 12.7684C105.882 12.7679 105.881 12.7671 105.88 12.7661C105.878 12.7642 105.875 12.7614 105.871 12.7578C105.863 12.7505 105.851 12.7399 105.835 12.7262C105.804 12.6986 105.758 12.6582 105.698 12.6058C105.578 12.5011 105.4 12.3486 105.169 12.1555C104.706 11.7695 104.03 11.2211 103.168 10.5685L102.866 10.9671Z" fill="#6E6D6D"/>
</svg>
